<?xml version='1.0' encoding='UTF-8'?>
<svg xmlns="http://www.w3.org/2000/svg" viewBox="15.167969 528.585938 288.171875 267.9726559999999" width="288.171875" height="267.9726559999999"><g><path style=" stroke:none;fill-rule:nonzero;fill:rgb(13.729858%,12.159729%,12.548828%);fill-opacity:1;" d="M 163.292969 704.871094 C 184.035156 691.058594 204.847656 677.351562 225.746094 663.789062 C 246.617188 650.179688 267.566406 636.699219 288.527344 623.246094 L 289.234375 629.566406 C 277.847656 626.191406 266.554688 622.554688 255.210938 619.0625 L 221.339844 608.101562 L 187.617188 596.730469 C 176.386719 592.914062 165.214844 588.902344 154.011719 585.003906 C 142.796875 581.140625 131.695312 576.9375 120.535156 572.914062 C 109.367188 568.902344 98.3125 564.570312 87.195312 560.414062 C 65.054688 551.839844 42.957031 543.128906 21.148438 533.585938 C 44.210938 539.488281 66.988281 546.222656 89.71875 553.085938 C 101.039062 556.648438 112.417969 560.039062 123.6875 563.746094 C 134.960938 567.449219 146.296875 570.964844 157.515625 574.824219 C 168.75 578.644531 180.019531 582.351562 191.222656 586.257812 L 224.804688 598.046875 L 258.246094 610.25 C 269.335938 614.476562 280.476562 618.5625 291.527344 622.910156 L 298.339844 625.589844 L 292.230469 629.230469 C 270.835938 641.984375 249.421875 654.71875 227.929688 667.320312 C 206.464844 679.96875 184.914062 692.46875 163.292969 704.871094 " />
<path style=" stroke:none;fill-rule:nonzero;fill:rgb(6.594849%,6.051636%,5.389404%);fill-opacity:1;" d="M 35.71875 782.875 C 35.71875 782.875 35.738281 782.144531 35.375 780.957031 C 35.019531 779.785156 34.097656 778.148438 32.320312 777.058594 C 30.597656 775.964844 27.96875 775.625 25.722656 776.753906 C 24.617188 777.300781 23.652344 778.183594 22.996094 779.261719 C 22.339844 780.40625 22.035156 781.519531 22.074219 782.921875 C 22.144531 784.078125 22.570312 785.34375 23.28125 786.292969 C 23.996094 787.257812 24.964844 787.976562 25.996094 788.371094 C 26.5 788.554688 27.082031 788.710938 27.527344 788.734375 C 27.71875 788.769531 28.09375 788.761719 28.398438 788.765625 L 29.097656 788.691406 C 30.074219 788.523438 30.933594 788.128906 31.609375 787.628906 C 32.972656 786.597656 33.554688 785.253906 33.738281 784.34375 C 33.847656 783.8125 33.84375 783.695312 33.859375 783.292969 C 33.863281 782.960938 33.867188 782.78125 33.867188 782.78125 Z M 37.570312 782.964844 C 37.570312 782.964844 37.554688 783.144531 37.527344 783.476562 C 37.503906 783.746094 37.390625 784.613281 37.164062 785.289062 C 36.726562 786.761719 35.585938 788.832031 33.351562 790.230469 C 32.246094 790.914062 30.882812 791.402344 29.417969 791.523438 C 29.03125 791.546875 28.730469 791.558594 28.257812 791.539062 C 27.933594 791.503906 27.664062 791.5 27.21875 791.414062 C 26.386719 791.28125 25.695312 791.023438 24.96875 790.6875 C 23.546875 790.003906 22.304688 788.890625 21.449219 787.511719 C 20.597656 786.105469 20.167969 784.53125 20.222656 782.824219 C 20.277344 781.363281 20.832031 779.636719 21.738281 778.429688 C 22.648438 777.167969 23.894531 776.214844 25.242188 775.679688 C 27.964844 774.578125 30.855469 775.246094 32.644531 776.578125 C 34.460938 777.914062 35.261719 779.695312 35.527344 780.910156 C 35.796875 782.148438 35.71875 782.875 35.71875 782.875 Z M 37.570312 782.964844 " />
<path style=" stroke:none;fill-rule:nonzero;fill:rgb(6.594849%,6.051636%,5.389404%);fill-opacity:1;" d="M 46.921875 770.621094 C 46.859375 771.117188 46.984375 770.089844 47.34375 768.875 C 47.726562 767.574219 48.316406 765.625 49.765625 763.429688 C 51.148438 761.285156 53.640625 758.648438 57.546875 757.769531 C 59.542969 757.320312 61.195312 757.226562 63.089844 756.804688 C 64.921875 756.433594 66.917969 756.003906 68.433594 755.226562 C 69.191406 754.851562 69.589844 754.332031 69.480469 754.261719 C 69.484375 754.214844 69.460938 754.121094 69.375 753.875 L 69.296875 753.679688 L 69.132812 753.195312 C 69.039062 752.867188 68.949219 752.789062 68.839844 752.222656 C 68.644531 751.246094 68.550781 750.367188 68.796875 749.339844 C 68.984375 748.335938 69.554688 747.339844 70.242188 746.582031 C 71.691406 745.097656 73.363281 744.539062 74.851562 744.1875 C 77.839844 743.542969 80.726562 743.800781 83.363281 744.121094 C 84.675781 744.285156 85.945312 744.414062 87.066406 744.492188 C 88.242188 744.558594 89.453125 744.582031 90.460938 744.445312 C 91.476562 744.414062 92.339844 743.839844 91.90625 744.125 C 91.667969 744.316406 91.605469 744.808594 91.625 744.769531 C 91.566406 744.695312 91.53125 744.425781 91.277344 744.039062 C 91.1875 743.867188 91.039062 743.664062 90.898438 743.457031 L 90.289062 742.574219 C 89.953125 742.117188 89.34375 741.101562 88.960938 740.253906 C 88.574219 739.347656 88.179688 738.390625 88.121094 736.953125 C 88.042969 736.328125 88.199219 735.417969 88.410156 734.640625 C 88.75 733.789062 89.203125 732.964844 89.851562 732.371094 C 90.496094 731.671875 91.109375 731.421875 91.789062 731.035156 C 92.355469 730.828125 92.996094 730.59375 93.527344 730.492188 C 94.609375 730.277344 95.542969 730.25 96.460938 730.246094 C 98.207031 730.320312 99.835938 730.542969 101.359375 730.878906 C 104.589844 731.59375 106.941406 732.398438 109.328125 732.574219 C 110.414062 732.746094 111.800781 732.625 111.734375 732.574219 C 111.671875 732.589844 111.722656 732.605469 111.605469 732.667969 C 111.457031 732.746094 111.332031 732.871094 111.253906 733.015625 C 110.882812 733.421875 110.734375 733.972656 110.75 734.378906 C 110.753906 734.992188 110.921875 734.808594 110.625 734.488281 C 110.429688 734.203125 110.101562 733.796875 109.683594 733.417969 L 108.167969 731.945312 C 107.683594 731.472656 106.886719 730.59375 106.328125 729.777344 C 105.792969 728.863281 105.019531 728.015625 104.914062 725.832031 C 104.789062 724.90625 105.339844 723.367188 106.085938 722.523438 C 106.457031 722.128906 106.882812 721.761719 107.324219 721.460938 C 107.714844 721.222656 108.027344 721.113281 108.394531 720.960938 C 109.796875 720.445312 110.773438 720.445312 111.71875 720.425781 C 113.5625 720.464844 115.136719 720.753906 116.632812 721.128906 C 119.558594 721.832031 122.460938 723.054688 124.773438 724.011719 C 126.136719 724.578125 126.871094 724.769531 128.054688 725.054688 C 129.117188 725.289062 130.1875 725.429688 131.03125 725.378906 C 131.921875 725.425781 132.40625 724.898438 132.035156 725.496094 C 131.792969 725.808594 132.066406 726.203125 131.964844 726.007812 C 131.957031 725.917969 131.816406 725.589844 131.527344 725.289062 C 131.304688 724.976562 130.925781 724.65625 130.570312 724.332031 L 129.171875 723.132812 C 128.738281 722.785156 128.242188 722.316406 127.730469 721.792969 C 127.226562 721.324219 126.75 720.785156 126.316406 720.164062 C 125.878906 719.648438 125.4375 718.785156 125.113281 717.914062 C 124.996094 717.285156 124.863281 716.703125 124.96875 716.015625 C 125.152344 715.277344 125.464844 714.4375 125.953125 714.066406 C 126.429688 713.570312 126.957031 713.21875 127.351562 713.105469 C 127.777344 712.925781 128.246094 712.742188 128.578125 712.714844 C 129.328125 712.558594 130.007812 712.515625 130.628906 712.527344 C 135.550781 712.679688 139.351562 714.25 142.617188 715.652344 C 145.777344 716.996094 148.609375 718.171875 150.746094 718.011719 C 151.753906 717.929688 152.160156 717.246094 152.148438 716.292969 C 152.171875 715.402344 151.9375 714.589844 151.773438 713.949219 C 151.394531 712.671875 151.109375 712.007812 151.109375 712.007812 C 151.109375 712.007812 151.515625 712.597656 152.148438 713.800781 C 152.441406 714.417969 152.84375 715.167969 153.035156 716.222656 C 153.136719 716.738281 153.148438 717.378906 152.871094 718.070312 C 152.527344 718.757812 151.808594 719.25 151.085938 719.449219 C 148.207031 720.132812 145.039062 719.25 141.671875 718.332031 C 138.410156 717.394531 134.53125 716.527344 130.828125 716.785156 C 129.957031 716.757812 129.03125 717.324219 129.386719 717.140625 C 129.355469 717.082031 129.671875 716.894531 129.621094 716.65625 C 129.648438 716.511719 129.726562 716.5 129.660156 716.429688 C 129.824219 716.570312 129.863281 716.769531 130.230469 717.105469 C 130.496094 717.414062 130.824219 717.714844 131.207031 718.023438 C 131.539062 718.320312 131.921875 718.652344 132.449219 719.015625 L 133.878906 720.066406 C 134.464844 720.511719 135.050781 720.941406 135.628906 721.570312 C 135.917969 721.84375 136.207031 722.160156 136.480469 722.574219 C 136.753906 722.964844 137.03125 723.328125 137.25 723.914062 C 137.742188 724.835938 137.929688 726.589844 137.257812 728.070312 C 136.535156 729.460938 135.328125 730.347656 134.410156 730.707031 C 133.421875 731.167969 132.515625 731.359375 131.671875 731.460938 C 129.941406 731.703125 128.378906 731.558594 126.863281 731.296875 C 125.464844 731.070312 123.609375 730.554688 122.484375 730.132812 C 119.789062 729.15625 117.601562 728.363281 115.121094 727.875 C 113.929688 727.617188 112.730469 727.503906 111.785156 727.523438 C 111.34375 727.515625 110.886719 727.613281 110.988281 727.605469 C 111.035156 727.59375 111 727.578125 111.09375 727.523438 C 111.269531 727.449219 111.429688 727.316406 111.53125 727.148438 C 111.902344 726.851562 112.070312 725.996094 112.078125 725.78125 C 111.976562 725.019531 112.015625 725.4375 112.246094 725.683594 C 112.511719 726.007812 112.640625 726.21875 113.175781 726.730469 L 114.742188 728.203125 C 115.371094 728.785156 115.996094 729.449219 116.617188 730.328125 C 117.183594 731.140625 117.96875 732.316406 118.078125 734.339844 C 118.101562 735.488281 117.695312 736.695312 116.910156 737.699219 C 116.5625 738.078125 116.160156 738.4375 115.746094 738.746094 C 115.347656 739.023438 115.039062 739.144531 114.667969 739.324219 C 111.925781 740.363281 110.328125 740.046875 108.59375 739.957031 C 105.253906 739.628906 102.148438 738.523438 99.820312 738.003906 C 98.5625 737.699219 97.359375 737.542969 96.269531 737.464844 C 95.292969 737.351562 94.230469 737.808594 94.890625 737.453125 C 95.144531 737.195312 95.28125 736.605469 95.242188 736.695312 C 95.203125 736.671875 95.308594 737.0625 95.457031 737.4375 C 95.644531 737.855469 95.699219 738.074219 96.144531 738.765625 L 96.675781 739.621094 C 96.914062 739.996094 97.148438 740.371094 97.363281 740.816406 C 97.804688 741.628906 98.199219 742.695312 98.375 743.964844 C 98.558594 745.292969 98.148438 747.203125 97.035156 748.441406 C 94.707031 750.773438 92.675781 750.710938 91.078125 750.933594 C 89.410156 751.066406 87.949219 750.945312 86.5 750.804688 C 84.988281 750.636719 83.679688 750.394531 82.441406 750.140625 C 80 749.632812 77.761719 749.355469 75.894531 749.609375 C 74.980469 749.722656 74.269531 750.027344 74.003906 750.238281 C 73.769531 750.375 73.695312 750.679688 73.664062 751.144531 C 73.601562 751.15625 73.753906 751.613281 73.792969 751.839844 L 74.019531 752.8125 C 74.195312 753.667969 74.21875 754.746094 73.816406 755.753906 C 72.96875 757.855469 71.320312 758.609375 70.164062 759.097656 C 67.707031 759.996094 65.582031 760.191406 63.546875 760.34375 C 61.5625 760.507812 59.484375 760.40625 58.035156 760.554688 C 54.972656 760.828125 52.515625 762.5625 50.929688 764.332031 C 49.3125 766.117188 48.308594 767.828125 47.714844 769.019531 C 47.414062 769.617188 47.207031 770.085938 47.070312 770.40625 C 47.015625 770.546875 46.933594 770.726562 46.898438 770.765625 C 46.914062 770.667969 46.921875 770.621094 46.921875 770.621094 " />
</g></svg>