<?xml version='1.0' encoding='UTF-8'?>
<svg xmlns="http://www.w3.org/2000/svg" width="563.27155pt" height="285.0593pt" viewBox="0 0 563.27155 285.0593" version="1.2">
<g id="surface1">
<path style=" stroke:none;fill-rule:nonzero;fill:rgb(100%,100%,100%);fill-opacity:1;" d="M 188.828125 145.046875 C 202.566406 135.867188 216.367188 126.792969 230.253906 117.867188 C 244.113281 108.890625 258.054688 100.046875 272.003906 91.222656 L 272.660156 97.558594 C 261.300781 94.1875 250.027344 90.5625 238.707031 87.078125 L 204.910156 76.140625 L 171.253906 64.789062 C 160.042969 60.984375 148.902344 56.980469 137.722656 53.085938 C 126.527344 49.234375 115.453125 45.035156 104.3125 41.023438 C 93.167969 37.019531 82.136719 32.695312 71.042969 28.546875 C 48.945312 19.992188 26.898438 11.300781 5.132812 1.777344 C 28.148438 7.667969 50.878906 14.382812 73.558594 21.234375 C 84.859375 24.792969 96.210938 28.179688 107.457031 31.878906 C 118.707031 35.570312 130.023438 39.074219 141.21875 42.929688 C 152.425781 46.742188 163.671875 50.445312 174.847656 54.339844 L 208.367188 66.105469 L 241.734375 78.28125 C 252.800781 82.5 263.917969 86.578125 274.945312 90.914062 L 281.953125 93.671875 L 275.609375 97.25 C 261.234375 105.363281 246.847656 113.460938 232.378906 121.417969 C 217.941406 129.425781 203.414062 137.289062 188.828125 145.046875 " />
<path style=" stroke:none;fill-rule:nonzero;fill:rgb(100%,100%,100%);fill-opacity:1;" d="M 268.070312 157.746094 C 268.011719 176.898438 267.949219 196.050781 267.890625 215.203125 C 267.875 219.96875 275.28125 219.976562 275.296875 215.203125 C 275.355469 196.050781 275.417969 176.898438 275.476562 157.746094 C 275.492188 152.980469 268.085938 152.972656 268.070312 157.746094 " />
<path style=" stroke:none;fill-rule:nonzero;fill:rgb(100%,100%,100%);fill-opacity:1;" d="M 314.269531 155.679688 C 300.675781 164.683594 287.085938 173.6875 273.492188 182.691406 C 271.070312 184.296875 271.160156 187.464844 273.492188 189.089844 C 287.257812 198.648438 301.027344 208.210938 314.796875 217.777344 C 318.71875 220.5 322.425781 214.082031 318.535156 211.378906 C 304.765625 201.820312 291 192.253906 277.230469 182.691406 L 277.230469 189.089844 C 290.820312 180.082031 304.414062 171.078125 318.003906 162.074219 C 321.964844 159.453125 318.257812 153.035156 314.269531 155.679688 " />
<path style=" stroke:none;fill-rule:nonzero;fill:rgb(100%,100%,100%);fill-opacity:1;" d="M 554.542969 210.847656 C 538.9375 210.8125 523.335938 210.773438 507.734375 210.738281 L 511.4375 214.441406 C 511.597656 195.324219 511.761719 176.214844 511.925781 157.101562 C 510.6875 158.335938 509.453125 159.570312 508.222656 160.804688 L 551.261719 160.804688 C 556.027344 160.804688 556.035156 153.398438 551.261719 153.398438 L 508.222656 153.398438 C 506.207031 153.398438 504.535156 155.09375 504.519531 157.101562 C 504.355469 176.214844 504.191406 195.324219 504.03125 214.441406 C 504.011719 216.445312 505.742188 218.136719 507.734375 218.144531 C 523.335938 218.179688 538.9375 218.21875 554.542969 218.253906 C 559.308594 218.265625 559.316406 210.859375 554.542969 210.847656 " />
<path style=" stroke:none;fill-rule:nonzero;fill:rgb(100%,100%,100%);fill-opacity:1;" d="M 542.4375 181.066406 C 531.308594 181.164062 520.179688 181.261719 509.050781 181.359375 C 504.289062 181.398438 504.277344 188.804688 509.050781 188.765625 C 520.179688 188.667969 531.308594 188.570312 542.4375 188.472656 C 547.199219 188.433594 547.210938 181.027344 542.4375 181.066406 " />
<path style=" stroke:none;fill-rule:nonzero;fill:rgb(100%,100%,100%);fill-opacity:1;" d="M 145.605469 232.71875 L 145.605469 275.277344 C 145.605469 277.277344 147.304688 278.980469 149.308594 278.980469 L 174.84375 278.980469 C 179.609375 278.980469 179.617188 271.574219 174.84375 271.574219 L 149.308594 271.574219 C 150.542969 272.804688 151.78125 274.039062 153.011719 275.277344 L 153.011719 232.71875 C 153.011719 227.953125 145.605469 227.949219 145.605469 232.71875 " />
<path style=" stroke:none;fill-rule:nonzero;fill:rgb(100%,100%,100%);fill-opacity:1;" d="M 189.367188 277.832031 C 192.777344 269.789062 196.34375 261.808594 199.746094 253.761719 C 201.339844 249.992188 210.054688 235.746094 206.816406 231.539062 C 205.46875 229.789062 202.746094 228.800781 200.996094 230.785156 C 196.941406 235.394531 205.121094 248.761719 206.898438 253.121094 C 210.195312 261.203125 213.46875 269.324219 217.015625 277.300781 C 218.945312 281.648438 225.328125 277.886719 223.40625 273.5625 C 220.570312 267.179688 217.957031 260.683594 215.300781 254.226562 C 213.511719 249.871094 211.730469 245.511719 210.027344 241.121094 C 209.367188 239.398438 208.886719 237.300781 208 235.683594 C 206.339844 232.652344 209.023438 232.855469 206.234375 236.027344 C 204.296875 235.773438 202.355469 235.527344 200.417969 235.273438 C 198.90625 233.3125 200.492188 232.984375 199.140625 235.71875 C 198.382812 237.25 197.882812 239.003906 197.25 240.589844 C 195.296875 245.460938 193.242188 250.292969 191.183594 255.125 C 188.476562 261.457031 185.664062 267.75 182.972656 274.09375 C 181.128906 278.429688 187.511719 282.207031 189.367188 277.832031 " />
<path style=" stroke:none;fill-rule:nonzero;fill:rgb(100%,100%,100%);fill-opacity:1;" d="M 236.753906 275.277344 L 236.753906 232.722656 C 235.519531 233.960938 234.285156 235.191406 233.050781 236.425781 C 239.359375 236.472656 259.679688 240.765625 246.578125 248.84375 C 243.792969 250.558594 244.441406 254.617188 247.460938 255.609375 C 250.613281 256.640625 255.359375 258.746094 254.757812 262.878906 C 254.21875 266.578125 249.582031 268.449219 246.578125 269.472656 C 242.285156 270.9375 237.578125 271.546875 233.050781 271.574219 C 228.289062 271.609375 228.277344 279.015625 233.050781 278.980469 C 241.570312 278.921875 252.800781 277.355469 258.753906 270.628906 C 267.015625 261.28125 259.214844 251.667969 249.433594 248.46875 C 249.726562 250.722656 250.019531 252.980469 250.316406 255.238281 C 257.484375 250.820312 261.679688 241.273438 254.433594 234.882812 C 248.976562 230.066406 240.050781 229.070312 233.050781 229.019531 C 231.046875 229.003906 229.347656 230.730469 229.347656 232.722656 L 229.347656 275.277344 C 229.347656 280.042969 236.753906 280.050781 236.753906 275.277344 " />
<path style=" stroke:none;fill-rule:nonzero;fill:rgb(100%,100%,100%);fill-opacity:1;" d="M 390.128906 216.304688 C 393.371094 208.777344 396.035156 200.976562 399.085938 193.371094 C 403.519531 182.285156 409.480469 171.746094 413.957031 160.804688 C 413.316406 162.375 411.367188 159.175781 411.800781 161.601562 C 411.929688 162.335938 412.839844 163.066406 413.109375 163.777344 C 413.980469 166.097656 415.472656 168.351562 416.527344 170.609375 C 419.519531 176.996094 422.160156 183.546875 424.757812 190.101562 C 428.113281 198.570312 431.558594 207.082031 434.425781 215.738281 C 435.917969 220.238281 443.074219 218.308594 441.570312 213.769531 C 437.859375 202.566406 433.363281 191.53125 428.875 180.625 C 426.496094 174.855469 421.085938 154.3125 413.019531 153.667969 C 405.058594 153.03125 399.519531 173.097656 397.371094 178.183594 C 392.808594 188.972656 387.613281 203.566406 383.734375 212.566406 C 381.867188 216.894531 388.25 220.671875 390.128906 216.304688 " />
<path style=" stroke:none;fill-rule:nonzero;fill:rgb(100%,100%,100%);fill-opacity:1;" d="M 446.210938 156.902344 C 446.183594 176.046875 446.152344 195.191406 446.125 214.339844 C 446.121094 216.339844 447.820312 218.042969 449.828125 218.042969 C 465.429688 218.046875 481.03125 218.050781 496.636719 218.054688 C 501.402344 218.054688 501.410156 210.648438 496.636719 210.648438 C 481.03125 210.644531 465.429688 210.640625 449.828125 210.636719 C 451.058594 211.871094 452.292969 213.105469 453.53125 214.339844 C 453.558594 195.191406 453.589844 176.046875 453.617188 156.902344 C 453.625 152.136719 446.21875 152.128906 446.210938 156.902344 " />
<path style=" stroke:none;fill-rule:nonzero;fill:rgb(100%,100%,100%);fill-opacity:1;" d="M 121.867188 215.832031 C 142.578125 222.132812 171.042969 222.378906 186.203125 203.925781 C 195.851562 192.175781 199.164062 174.78125 200.117188 159.957031 C 200.246094 157.957031 198.320312 156.253906 196.414062 156.253906 L 154.898438 156.253906 C 150.132812 156.253906 150.125 163.660156 154.898438 163.660156 L 196.414062 163.660156 C 195.179688 162.425781 193.945312 161.191406 192.710938 159.957031 C 191.976562 171.382812 189.550781 184.230469 183.800781 194.226562 C 171.929688 214.871094 143.761719 214.75 123.839844 208.691406 C 119.269531 207.300781 117.3125 214.449219 121.867188 215.832031 " />
<path style=" stroke:none;fill-rule:nonzero;fill:rgb(100%,100%,100%);fill-opacity:1;" d="M 180.964844 102.589844 C 160.789062 91.4375 129.476562 92.820312 110.164062 105.175781 C 87.335938 119.777344 79.664062 151.84375 86.6875 176.734375 C 87.980469 181.308594 95.132812 179.367188 93.832031 174.761719 C 87.058594 150.777344 95.578125 120.003906 119.375 108.714844 C 136.023438 100.820312 160.824219 99.917969 177.226562 108.984375 C 181.402344 111.292969 185.140625 104.902344 180.964844 102.589844 " />
<path style=" stroke:none;fill-rule:nonzero;fill:rgb(100%,100%,100%);fill-opacity:1;" d="M 256.484375 185.546875 C 255.902344 199.382812 247.261719 211.730469 232.355469 211.847656 C 218.359375 211.953125 208.585938 201.195312 208.570312 187.460938 C 208.53125 155.472656 255.125 153.429688 256.484375 185.546875 C 256.683594 190.296875 264.09375 190.320312 263.890625 185.546875 C 262.128906 143.910156 201.132812 145.914062 201.164062 187.460938 C 201.175781 205.3125 214.253906 219.332031 232.355469 219.253906 C 251.390625 219.167969 263.136719 203.441406 263.890625 185.546875 C 264.089844 180.78125 256.683594 180.792969 256.484375 185.546875 " />
<path style=" stroke:none;fill-rule:nonzero;fill:rgb(100%,100%,100%);fill-opacity:1;" d="M 324.523438 157.476562 L 324.523438 214.925781 C 324.523438 219.691406 331.929688 219.699219 331.929688 214.925781 L 331.929688 157.476562 C 331.929688 152.710938 324.523438 152.703125 324.523438 157.476562 " />
<path style=" stroke:none;fill-rule:nonzero;fill:rgb(100%,100%,100%);fill-opacity:1;" d="M 371.332031 157.476562 L 371.332031 214.925781 C 371.332031 219.691406 378.738281 219.699219 378.738281 214.925781 L 378.738281 157.476562 C 378.738281 152.710938 371.332031 152.703125 371.332031 157.476562 " />
<path style=" stroke:none;fill-rule:nonzero;fill:rgb(100%,100%,100%);fill-opacity:1;" d="M 369.539062 179.570312 C 356.421875 179.566406 343.304688 179.566406 330.183594 179.5625 C 325.417969 179.5625 325.410156 186.96875 330.183594 186.96875 C 343.304688 186.972656 356.421875 186.972656 369.539062 186.976562 C 374.304688 186.976562 374.3125 179.570312 369.539062 179.570312 " />
<path style=" stroke:none;fill-rule:nonzero;fill:rgb(100%,100%,100%);fill-opacity:1;" d="M 19.671875 250.546875 C 19.671875 250.546875 19.691406 249.816406 19.328125 248.628906 C 18.976562 247.464844 18.054688 245.832031 16.28125 244.746094 C 14.5625 243.652344 11.9375 243.316406 9.695312 244.441406 C 8.59375 244.984375 7.628906 245.867188 6.976562 246.945312 C 6.320312 248.082031 6.015625 249.195312 6.054688 250.59375 C 6.125 251.75 6.550781 253.011719 7.261719 253.957031 C 7.976562 254.921875 8.941406 255.636719 9.96875 256.035156 C 10.472656 256.214844 11.050781 256.371094 11.5 256.394531 C 11.6875 256.429688 12.0625 256.421875 12.367188 256.425781 L 13.066406 256.351562 C 14.039062 256.1875 14.894531 255.789062 15.574219 255.292969 C 16.933594 254.265625 17.515625 252.921875 17.695312 252.011719 C 17.804688 251.484375 17.800781 251.363281 17.816406 250.964844 C 17.820312 250.632812 17.824219 250.453125 17.824219 250.453125 Z M 21.519531 250.640625 C 21.519531 250.640625 21.503906 250.816406 21.476562 251.152344 C 21.453125 251.417969 21.34375 252.285156 21.113281 252.957031 C 20.679688 254.425781 19.539062 256.492188 17.308594 257.890625 C 16.207031 258.570312 14.847656 259.054688 13.386719 259.179688 C 13 259.199219 12.699219 259.210938 12.226562 259.195312 C 11.902344 259.160156 11.632812 259.15625 11.1875 259.066406 C 10.359375 258.9375 9.671875 258.679688 8.945312 258.34375 C 7.527344 257.660156 6.285156 256.554688 5.429688 255.175781 C 4.582031 253.773438 4.152344 252.203125 4.207031 250.5 C 4.265625 249.039062 4.816406 247.316406 5.71875 246.109375 C 6.628906 244.851562 7.875 243.902344 9.21875 243.367188 C 11.933594 242.265625 14.816406 242.9375 16.601562 244.261719 C 18.417969 245.597656 19.21875 247.375 19.480469 248.585938 C 19.75 249.824219 19.671875 250.546875 19.671875 250.546875 Z M 21.519531 250.640625 " />
<path style=" stroke:none;fill-rule:nonzero;fill:rgb(100%,100%,100%);fill-opacity:1;" d="M 30.851562 238.320312 C 30.789062 238.816406 30.914062 237.789062 31.273438 236.574219 C 31.65625 235.28125 32.242188 233.332031 33.691406 231.144531 C 35.070312 229.003906 37.558594 226.375 41.457031 225.496094 C 43.445312 225.046875 45.097656 224.953125 46.984375 224.535156 C 48.816406 224.164062 50.808594 223.734375 52.316406 222.957031 C 53.078125 222.582031 53.472656 222.0625 53.367188 221.992188 C 53.371094 221.949219 53.34375 221.851562 53.257812 221.609375 L 53.179688 221.410156 L 53.019531 220.929688 C 52.921875 220.601562 52.832031 220.523438 52.726562 219.960938 C 52.527344 218.988281 52.4375 218.109375 52.679688 217.082031 C 52.871094 216.074219 53.4375 215.085938 54.125 214.332031 C 55.570312 212.851562 57.238281 212.292969 58.722656 211.941406 C 61.707031 211.296875 64.585938 211.554688 67.21875 211.875 C 68.527344 212.039062 69.796875 212.167969 70.914062 212.246094 C 72.085938 212.308594 73.296875 212.335938 74.300781 212.199219 C 75.3125 212.167969 76.175781 211.59375 75.742188 211.878906 C 75.507812 212.070312 75.445312 212.5625 75.460938 212.519531 C 75.402344 212.445312 75.371094 212.179688 75.113281 211.796875 C 75.023438 211.621094 74.878906 211.417969 74.734375 211.214844 L 74.128906 210.332031 C 73.796875 209.875 73.183594 208.863281 72.804688 208.015625 C 72.417969 207.109375 72.027344 206.15625 71.964844 204.722656 C 71.890625 204.101562 72.042969 203.1875 72.253906 202.414062 C 72.59375 201.5625 73.042969 200.742188 73.691406 200.148438 C 74.335938 199.453125 74.949219 199.199219 75.625 198.816406 C 76.191406 198.609375 76.832031 198.375 77.363281 198.273438 C 78.4375 198.058594 79.371094 198.035156 80.289062 198.027344 C 82.03125 198.101562 83.65625 198.324219 85.175781 198.660156 C 88.402344 199.375 90.75 200.179688 93.128906 200.351562 C 94.214844 200.523438 95.59375 200.40625 95.527344 200.351562 C 95.46875 200.367188 95.519531 200.382812 95.402344 200.445312 C 95.253906 200.523438 95.128906 200.648438 95.050781 200.792969 C 94.679688 201.195312 94.53125 201.75 94.546875 202.152344 C 94.550781 202.761719 94.71875 202.582031 94.421875 202.261719 C 94.230469 201.976562 93.898438 201.570312 93.484375 201.191406 L 91.96875 199.722656 C 91.488281 199.253906 90.691406 198.375 90.132812 197.558594 C 89.601562 196.648438 88.832031 195.800781 88.722656 193.625 C 88.601562 192.703125 89.148438 191.164062 89.894531 190.320312 C 90.261719 189.929688 90.6875 189.5625 91.128906 189.261719 C 91.519531 189.023438 91.828125 188.914062 92.195312 188.761719 C 93.597656 188.246094 94.570312 188.246094 95.515625 188.230469 C 97.355469 188.269531 98.925781 188.554688 100.417969 188.933594 C 103.339844 189.632812 106.234375 190.855469 108.542969 191.804688 C 109.902344 192.371094 110.632812 192.566406 111.816406 192.851562 C 112.878906 193.082031 113.945312 193.21875 114.789062 193.171875 C 115.675781 193.21875 116.160156 192.691406 115.789062 193.289062 C 115.546875 193.601562 115.820312 193.996094 115.71875 193.796875 C 115.710938 193.710938 115.570312 193.382812 115.28125 193.082031 C 115.058594 192.769531 114.679688 192.449219 114.324219 192.128906 L 112.929688 190.933594 C 112.5 190.582031 112.003906 190.117188 111.492188 189.59375 C 110.988281 189.125 110.515625 188.589844 110.082031 187.964844 C 109.644531 187.453125 109.203125 186.59375 108.882812 185.722656 C 108.765625 185.097656 108.628906 184.515625 108.738281 183.828125 C 108.917969 183.09375 109.230469 182.253906 109.71875 181.882812 C 110.195312 181.390625 110.722656 181.039062 111.113281 180.921875 C 111.542969 180.746094 112.007812 180.558594 112.339844 180.535156 C 113.089844 180.378906 113.765625 180.332031 114.386719 180.347656 C 119.296875 180.5 123.089844 182.066406 126.347656 183.464844 C 129.5 184.808594 132.328125 185.980469 134.460938 185.820312 C 135.464844 185.738281 135.871094 185.054688 135.859375 184.105469 C 135.886719 183.214844 135.652344 182.402344 135.484375 181.765625 C 135.105469 180.488281 134.820312 179.824219 134.820312 179.824219 C 134.820312 179.824219 135.230469 180.414062 135.859375 181.617188 C 136.152344 182.234375 136.554688 182.980469 136.742188 184.03125 C 136.847656 184.546875 136.859375 185.1875 136.582031 185.878906 C 136.242188 186.5625 135.523438 187.054688 134.800781 187.253906 C 131.925781 187.9375 128.769531 187.054688 125.40625 186.140625 C 122.148438 185.203125 118.28125 184.335938 114.585938 184.597656 C 113.714844 184.570312 112.792969 185.132812 113.144531 184.953125 C 113.113281 184.890625 113.429688 184.703125 113.382812 184.464844 C 113.40625 184.320312 113.484375 184.3125 113.417969 184.242188 C 113.582031 184.382812 113.621094 184.582031 113.988281 184.914062 C 114.25 185.222656 114.582031 185.527344 114.960938 185.828125 C 115.292969 186.128906 115.675781 186.457031 116.203125 186.820312 L 117.628906 187.871094 C 118.214844 188.3125 118.800781 188.742188 119.375 189.371094 C 119.664062 189.644531 119.949219 189.957031 120.226562 190.371094 C 120.5 190.761719 120.773438 191.125 120.992188 191.710938 C 121.484375 192.632812 121.671875 194.378906 121.003906 195.855469 C 120.28125 197.246094 119.074219 198.128906 118.160156 198.488281 C 117.171875 198.949219 116.269531 199.140625 115.425781 199.242188 C 113.699219 199.480469 112.140625 199.339844 110.625 199.078125 C 109.230469 198.851562 107.382812 198.339844 106.257812 197.914062 C 103.566406 196.941406 101.382812 196.148438 98.910156 195.664062 C 97.722656 195.40625 96.523438 195.289062 95.582031 195.3125 C 95.140625 195.304688 94.683594 195.402344 94.785156 195.394531 C 94.832031 195.382812 94.796875 195.367188 94.890625 195.3125 C 95.066406 195.238281 95.226562 195.105469 95.328125 194.9375 C 95.699219 194.640625 95.867188 193.785156 95.875 193.574219 C 95.773438 192.8125 95.808594 193.230469 96.039062 193.476562 C 96.304688 193.796875 96.4375 194.007812 96.96875 194.519531 L 98.53125 195.992188 C 99.15625 196.570312 99.785156 197.234375 100.402344 198.113281 C 100.96875 198.921875 101.75 200.09375 101.859375 202.113281 C 101.882812 203.257812 101.480469 204.464844 100.695312 205.464844 C 100.347656 205.84375 99.945312 206.203125 99.53125 206.511719 C 99.136719 206.789062 98.828125 206.90625 98.457031 207.089844 C 95.722656 208.125 94.125 207.808594 92.394531 207.71875 C 89.0625 207.390625 85.964844 206.289062 83.640625 205.769531 C 82.386719 205.460938 81.183594 205.3125 80.097656 205.234375 C 79.125 205.117188 78.0625 205.578125 78.722656 205.222656 C 78.976562 204.964844 79.109375 204.375 79.074219 204.464844 C 79.03125 204.441406 79.140625 204.828125 79.289062 205.203125 C 79.472656 205.621094 79.527344 205.839844 79.972656 206.527344 L 80.503906 207.382812 C 80.738281 207.757812 80.976562 208.132812 81.191406 208.578125 C 81.628906 209.386719 82.023438 210.449219 82.199219 211.722656 C 82.382812 213.042969 81.96875 214.949219 80.859375 216.1875 C 78.539062 218.511719 76.511719 218.453125 74.917969 218.675781 C 73.25 218.804688 71.796875 218.6875 70.347656 218.546875 C 68.839844 218.378906 67.535156 218.132812 66.296875 217.882812 C 63.859375 217.375 61.628906 217.097656 59.765625 217.351562 C 58.855469 217.464844 58.144531 217.769531 57.875 217.980469 C 57.644531 218.117188 57.570312 218.417969 57.539062 218.882812 C 57.476562 218.898438 57.628906 219.351562 57.667969 219.578125 L 57.894531 220.550781 C 58.070312 221.402344 58.089844 222.476562 57.691406 223.480469 C 56.847656 225.582031 55.199219 226.332031 54.046875 226.820312 C 51.597656 227.71875 49.472656 227.910156 47.441406 228.0625 C 45.464844 228.230469 43.390625 228.125 41.941406 228.273438 C 38.886719 228.546875 36.4375 230.277344 34.851562 232.042969 C 33.238281 233.824219 32.238281 235.53125 31.644531 236.71875 C 31.34375 237.316406 31.136719 237.785156 31 238.105469 C 30.949219 238.246094 30.863281 238.421875 30.828125 238.464844 C 30.84375 238.367188 30.851562 238.320312 30.851562 238.320312 " />
</g>
</svg>